<?xml version="1.0" standalone="no"?>
<!DOCTYPE svg PUBLIC "-//W3C//DTD SVG 20010904//EN"
 "http://www.w3.org/TR/2001/REC-SVG-20010904/DTD/svg10.dtd">
<svg version="1.0" xmlns="http://www.w3.org/2000/svg"
 width="1000.000000pt" height="1000.000000pt" viewBox="0 0 1000.000000 1000.000000"
 preserveAspectRatio="xMidYMid meet">
<metadata>
Created by potrace 1.11, written by Peter Selinger 2001-2013
</metadata>
<g transform="translate(0.000000,1000.000000) scale(0.100000,-0.100000)"
fill="#000000" stroke="none">
<path d="M522 9973 c14 -16 39 -44 55 -63 17 -19 84 -96 148 -170 65 -74 132
-151 149 -170 17 -19 63 -71 101 -115 80 -93 198 -228 205 -235 3 -3 59 -68
125 -145 66 -77 125 -144 131 -150 5 -5 39 -44 75 -85 35 -41 66 -77 69 -80 3
-3 79 -90 170 -195 90 -104 167 -192 170 -195 3 -3 32 -36 65 -75 33 -38 64
-75 70 -81 5 -6 34 -39 64 -72 l53 -61 657 -1 c2674 -3 3311 -4 3311 -8 0 -4
-66 -126 -102 -187 -10 -16 -32 -57 -50 -90 -18 -33 -37 -68 -43 -77 -5 -9
-31 -54 -56 -100 -26 -46 -55 -99 -66 -118 -20 -35 -358 -636 -405 -720 -14
-25 -68 -121 -121 -215 -52 -93 -233 -415 -401 -714 l-305 -544 29 -31 c16
-17 61 -69 101 -116 63 -73 127 -148 238 -275 14 -16 82 -95 151 -175 69 -80
127 -147 130 -150 3 -3 61 -70 130 -150 68 -80 134 -156 146 -170 20 -22 144
-165 213 -245 14 -17 42 -49 61 -71 51 -58 134 -154 162 -188 l25 -30 40 70
c22 38 55 96 73 129 18 33 85 152 148 265 63 113 128 230 145 260 32 58 200
360 234 420 11 19 37 67 58 105 21 39 63 112 92 163 29 51 53 94 53 97 0 2 20
38 45 79 25 42 45 78 45 81 0 2 14 28 31 57 17 29 44 76 59 103 14 28 39 71
53 98 15 26 39 68 53 95 15 26 100 178 189 337 89 160 177 317 195 350 18 33
53 96 78 140 25 44 152 271 282 505 130 234 345 619 477 855 132 237 253 453
268 480 15 28 35 64 45 80 9 17 31 55 47 85 17 30 126 226 243 435 116 209
226 405 243 435 149 270 274 492 294 528 l25 42 -4498 0 -4498 0 26 -27z"/>
<path d="M1350 5296 c0 -3 6 -11 13 -18 6 -7 41 -47 76 -88 36 -41 70 -79 75
-85 6 -5 36 -39 66 -75 30 -36 57 -67 60 -70 3 -3 48 -54 100 -115 52 -60 109
-126 126 -145 17 -19 80 -91 140 -160 59 -69 140 -161 179 -206 38 -44 95
-109 125 -143 80 -93 87 -100 144 -166 29 -33 88 -100 130 -150 43 -49 94
-108 115 -131 20 -22 47 -54 61 -70 36 -42 307 -353 344 -394 17 -20 58 -67
91 -105 33 -39 62 -72 65 -75 3 -3 95 -108 205 -235 200 -231 211 -244 262
-301 15 -17 39 -45 53 -61 83 -97 215 -249 220 -253 3 -3 34 -39 70 -80 36
-41 77 -88 91 -105 15 -16 109 -124 209 -240 100 -115 195 -224 211 -242 23
-26 163 -187 255 -293 35 -40 183 -210 240 -275 77 -88 91 -105 142 -164 26
-29 54 -61 62 -71 44 -50 131 -150 235 -270 65 -74 132 -151 149 -170 17 -19
60 -69 96 -110 36 -41 70 -80 75 -86 6 -6 26 -30 45 -54 19 -24 46 -54 60 -67
l25 -23 1298 0 c1095 0 1297 2 1290 14 -7 12 -34 43 -177 205 -73 84 -92 106
-201 231 -54 63 -111 129 -126 145 -14 17 -63 73 -109 125 -45 52 -94 109
-109 125 -14 17 -71 82 -126 145 -55 63 -102 117 -105 120 -3 3 -48 55 -100
115 -52 61 -109 126 -126 145 -26 28 -406 465 -648 744 -28 33 -56 64 -61 70
-6 6 -53 61 -105 121 -52 61 -97 112 -100 115 -3 3 -34 39 -70 80 -36 41 -79
91 -96 110 -33 37 -280 321 -374 430 -30 35 -64 74 -75 86 -26 28 -37 41 -239
274 -92 107 -183 211 -200 230 -17 19 -62 71 -100 115 -38 44 -72 82 -75 85
-4 3 -49 55 -100 115 -52 61 -122 142 -156 180 -34 39 -128 147 -209 240 -81
94 -160 184 -175 200 -15 17 -72 82 -126 145 -55 63 -104 120 -110 126 -5 6
-21 24 -35 40 -46 54 -155 179 -160 184 -3 3 -34 39 -70 80 -35 41 -79 91 -97
110 -18 19 -33 38 -33 42 0 4 -587 8 -1305 8 -718 0 -1305 -2 -1305 -4z"/>
</g>
</svg>
